<?xml version="1.0" encoding="UTF-8"?>
<svg width="110" height="160" version="1.1" viewBox="0 0 29.1 42.3" xmlns="http://www.w3.org/2000/svg"><path d="m3.18e-7 6.36e-7h29.1v42.3h-29.1z" fill="#d5d5d5" stroke-width=".263"/><g transform="matrix(.0661 0 0 .0661 6.09 12.7)" fill="currentColor"><path d="m224 56v32l-48 16-16 40-23.4 9.34-39-39a8 8 0 0 0-11.3 0l-54.3 54.4v-113a8 8 0 0 1 8-8h176a8 8 0 0 1 8 8" opacity=".2"/><path d="m216 40h-176a16 16 0 0 0-16 16v144a16 16 0 0 0 16 16h64a8 8 0 0 0 7.59-5.47l14.8-44.5 36.6-14.6a8.07 8.07 0 0 0 4.46-4.46l14.6-36.6 44.5-14.8a8 8 0 0 0 5.44-7.59v-32a16 16 0 0 0-16-16m-104 117-14.2 42.5h-58.2v-28l52-52 30.4 30.4-5.42 2.15a8 8 0 0 0-4.59 4.9m104-75.2-42.5 14.2a8 8 0 0 0-4.9 4.62l-14.7 36.8-15.3 6.15-35.3-35.3a16 16 0 0 0-22.6 0l-40.7 40.6v-93.4h176zm12.7 33a8 8 0 0 0-7.21-1.1l-23.8 7.94a8 8 0 0 0-4.9 4.61l-14.3 35.8-35.8 14.3a8 8 0 0 0-4.61 4.9l-7.94 23.8a8 8 0 0 0 7.59 10.5h78.3a16 16 0 0 0 16-16v-78.3a8 8 0 0 0-3.32-6.49zm-12.7 84.8h-67.2l3.25-9.75 35.5-14.2a8.07 8.07 0 0 0 4.46-4.46l14.2-35.5 9.75-3.25z" fill="#848484"/></g></svg>
