<svg xmlns="http://www.w3.org/2000/svg" width="214" height="306" viewBox="0 0 214 306"><rect width="100%" height="100%" fill="#DDDDDD"/><path fill="#999999" d="M59.85 144.925h-4.13l-4.87 8.09-4.86-8.09h-4.47l7.05 11.7v6.5h4.21v-6.45Zm6.58 18.41c4.44 0 7.67-2.99 7.67-7.2 0-4.22-3.23-7.21-7.67-7.21-4.45 0-7.7 2.99-7.7 7.21 0 4.21 3.25 7.2 7.7 7.2Zm0-3.33c-2.03 0-3.59-1.46-3.59-3.87 0-2.42 1.56-3.88 3.59-3.88s3.56 1.46 3.56 3.88c0 2.41-1.53 3.87-3.56 3.87Zm28.29-11.08c-2.11 0-3.93.86-5.05 2.29-.99-1.53-2.65-2.29-4.6-2.29-1.79 0-3.35.63-4.39 1.82v-1.61H76.8v13.99h4.06v-7.02c0-2.5 1.27-3.67 3.07-3.67 1.69 0 2.65 1.04 2.65 3.31v7.38h4.05v-7.02c0-2.5 1.28-3.67 3.1-3.67 1.64 0 2.65 1.04 2.65 3.31v7.38h4.06v-8.01c0-4.26-2.4-6.19-5.72-6.19Zm11.38-1.74c1.51 0 2.53-.99 2.53-2.34 0-1.25-1.02-2.18-2.53-2.18-1.5 0-2.52.99-2.52 2.26 0 1.27 1.02 2.26 2.52 2.26Zm-2.02 15.94h4.05v-13.99h-4.05Zm18.25 0h4.91l-6.34-8.06 5.82-5.93h-4.83l-5.93 5.62v-10.92h-4.06v19.29h4.06v-3.56l1.95-1.93Zm12.11-14.2c-2.23 0-4.49.6-6.03 1.69l1.46 2.84c1.01-.81 2.55-1.3 4.03-1.3 2.18 0 3.22 1.01 3.22 2.75h-3.22c-4.27 0-6.01 1.72-6.01 4.19 0 2.42 1.95 4.24 5.23 4.24 2.05 0 3.51-.68 4.26-1.95v1.74h3.8v-7.98c0-4.24-2.47-6.22-6.74-6.22Zm-.31 11.68c-1.43 0-2.29-.68-2.29-1.69 0-.94.6-1.64 2.5-1.64h2.78v1.43c-.47 1.27-1.64 1.9-2.99 1.9Zm14.88-.6 7.12-8.42v-2.45h-12.07v3.12h6.95l-7.13 8.43v2.44h12.48v-3.12Zm23.47-3.82c0-4.5-3.17-7.26-7.28-7.26-4.26 0-7.46 3.02-7.46 7.21 0 4.16 3.15 7.2 7.98 7.2 2.52 0 4.47-.78 5.77-2.26l-2.15-2.34c-.97.91-2.03 1.35-3.51 1.35-2.14 0-3.62-1.07-4.01-2.81h10.59c.02-.34.07-.78.07-1.09Zm-7.25-4.19c1.82 0 3.14 1.15 3.43 2.91h-6.89c.29-1.79 1.61-2.91 3.46-2.91Z"/></svg>