<svg id="Layer_1" data-name="Layer 1" xmlns="http://www.w3.org/2000/svg" viewBox="0 0 900 900"><defs><style>.cls-1{fill:#cf9047;}.cls-2{fill:#572e1b;}.cls-3{fill:#f1f3fa;}.cls-4{fill:#8e5a2f;}.cls-5{fill:#114232;}</style></defs><path class="cls-1" d="M772.69,678.78C703,763.28,584.46,818.83,450,818.83S197,763.24,127.23,678.7c48.26,17.78,114,5.07,168.91-37.38,6.37-4.9,12.35-10.09,18-15.4a85.34,85.34,0,0,0-5.42,29.86c0,60.26,63.94,109.12,142.82,109.12S594.36,716,594.36,655.78a84.74,84.74,0,0,0-4-25.9q6.54,5.94,13.66,11.44C658.78,683.69,724.47,696.44,772.69,678.78Z"/><path class="cls-1" d="M838.54,502.67a258.39,258.39,0,0,1-4.24,46.8c-9.7-38.85-35.63-78.56-74.95-109a229.6,229.6,0,0,0-31.16-20.35c-49.34-26.84-102.83-32-142.86-15a97.88,97.88,0,0,0-39.91,30.32c-19.16,24.79-24.55,56.9-17.9,90a169.44,169.44,0,0,0,16,44.62c.6,1.15,1.19,2.3,1.86,3.45a141.86,141.86,0,0,0-16.07-9.31c-22.37-11.12-49.06-17.57-77.76-17.57A177.9,177.9,0,0,0,383,560a146.4,146.4,0,0,0-30.09,16.9c1.7-3,3.32-6,4.83-9,23.59-46.88,24.31-97.09-3-132.41a98.15,98.15,0,0,0-40-30.4c-40-16.91-93.49-11.72-142.82,15.12a235,235,0,0,0-31.08,20.31c-39.44,30.49-65.41,70.36-75,109.32a258.28,258.28,0,0,1-4.32-47.15c0-50.09,14.3-97.45,39.79-139.53a307,307,0,0,1,35-47C169.67,279,212.87,248,262.76,225.62a427.21,427.21,0,0,1,54.76-20.23,474.24,474.24,0,0,1,265,0,429.4,429.4,0,0,1,54.76,20.2C687.13,248,730.33,279,763.74,316.18a307,307,0,0,1,35,47C824.25,405.22,838.54,452.58,838.54,502.67Z"/><path class="cls-2" d="M354.73,435.47a98,98,0,0,0-40-30.41c-40-16.91-93.48-11.72-142.82,15.12a235,235,0,0,0-31.08,20.31c-39.44,30.49-65.41,70.36-75,109.32,8.63,47.2,30.13,91,61.45,128.88,48.26,17.78,114,5.07,168.91-37.37,6.37-4.91,12.35-10.1,18-15.41,0,0,0-.07,0-.07A92.64,92.64,0,0,1,321.27,611s0-.08.08-.12a114.27,114.27,0,0,1,31.56-34c1.7-3,3.32-6,4.83-9C381.33,521,382.05,470.78,354.73,435.47ZM271.26,602.79A77.78,77.78,0,1,1,349,525,77.81,77.81,0,0,1,271.26,602.79Z"/><path class="cls-3" d="M271.26,447.23A77.78,77.78,0,1,0,349,525,77.78,77.78,0,0,0,271.26,447.23Zm3.61,130.22a52,52,0,0,1-52-52,51.45,51.45,0,0,1,3.09-17.69,23.34,23.34,0,1,0,32.74-31.72,52,52,0,1,1,16.2,101.4Z"/><path class="cls-2" d="M326.85,525.46a52,52,0,0,1-104,0,51.45,51.45,0,0,1,3.09-17.69,23.34,23.34,0,1,0,32.74-31.72,52,52,0,0,1,68.18,49.41Z"/><path class="cls-4" d="M262.76,225.62C212.87,248,169.67,279,136.26,316.18c-22.93-39.76-18.57-87,12.19-110.75C180.56,180.65,229.94,190,262.76,225.62Z"/><path class="cls-2" d="M317.52,205.39a427.21,427.21,0,0,0-54.76,20.23c-32.82-35.67-82.2-45-114.31-20.19-30.76,23.8-35.12,71-12.19,110.75a307,307,0,0,0-35,47C46,291.55,48.59,197,107,151.82S257.77,128,313.16,199.57C314.67,201.51,316.09,203.45,317.52,205.39Z"/><path class="cls-2" d="M759.34,440.49a229.6,229.6,0,0,0-31.16-20.35c-49.33-26.84-102.83-32-142.85-15a97.93,97.93,0,0,0-39.92,30.33c-19.16,24.78-24.54,56.89-17.89,90a169.6,169.6,0,0,0,16,44.63c.6,1.14,1.19,2.29,1.86,3.44v0A123.54,123.54,0,0,1,572,597.13s0,.08.08.12a96.85,96.85,0,0,1,18.17,32.58l0,0c4.36,4,8.91,7.76,13.66,11.45,54.8,42.36,120.49,55.11,168.71,37.45,31.44-38,53-82,61.61-129.31C824.59,510.62,798.66,470.9,759.34,440.49ZM628.72,602.79A77.77,77.77,0,0,1,551,525.46V525a77.78,77.78,0,1,1,77.76,77.8Z"/><path class="cls-3" d="M628.72,447.23A77.74,77.74,0,0,0,551,525v.47a77.78,77.78,0,1,0,77.76-78.23Zm3.6,130.22a52,52,0,0,1-52-52,51.44,51.44,0,0,1,3.08-17.69,23.31,23.31,0,1,0,32.71-31.68,51.09,51.09,0,0,1,16.19-2.61,52,52,0,1,1,0,104Z"/><path class="cls-2" d="M684.35,525.46a52,52,0,0,1-104,0,51.44,51.44,0,0,1,3.08-17.69,23.31,23.31,0,1,0,32.71-31.68,51.09,51.09,0,0,1,16.19-2.61A52,52,0,0,1,684.35,525.46Z"/><path class="cls-4" d="M763.74,316.18C730.33,279,687.13,248,637.24,225.59c32.86-35.64,82.28-44.94,114.31-20.16C782.31,229.23,786.67,276.42,763.74,316.18Z"/><path class="cls-2" d="M798.75,363.14a307,307,0,0,0-35-47c22.93-39.76,18.57-87-12.19-110.75-32-24.78-81.45-15.48-114.31,20.16a429.4,429.4,0,0,0-54.76-20.2c1.43-1.94,2.85-3.88,4.36-5.82C642.23,128,734.56,106.6,793,151.82S854,291.55,798.75,363.14Z"/><path class="cls-3" d="M590.32,629.88l0,0a97,97,0,0,0-18.17-32.58s-.08-.08-.08-.12a123.54,123.54,0,0,0-26.65-23.56v0a141.86,141.86,0,0,0-16.07-9.31c-22.37-11.12-49.06-17.57-77.76-17.57A177.9,177.9,0,0,0,383,560a146.4,146.4,0,0,0-30.09,16.9,114.42,114.42,0,0,0-31.56,34s-.08.08-.08.12a92.94,92.94,0,0,0-7.09,14.84s0,0,0,.08a85.34,85.34,0,0,0-5.42,29.86c0,60.26,63.94,109.12,142.82,109.12S594.36,716,594.36,655.78A84.74,84.74,0,0,0,590.32,629.88Zm-19.24,43.91a7.21,7.21,0,0,1-.4,1.9,11.11,11.11,0,0,1-.43,1.23.21.21,0,0,1-.08.16,12.5,12.5,0,0,1-.67,1.31c0,.07,0,.11-.12.19a11.29,11.29,0,0,1-.64.95,0,0,0,0,0,0,0v0a74.69,74.69,0,0,1-119.17,2.5,74.76,74.76,0,0,1-115-.68s-.08,0-.08-.11c-.67-.84-1.34-1.71-2-2.54a3.13,3.13,0,0,1-.28-.43,12.13,12.13,0,0,1,19.24-14.3c.63.83,1.27,1.63,1.94,2.42a50.69,50.69,0,0,0,83.55-8.24,49.59,49.59,0,0,0,4.71-12.39c-2.58-.2-5.07-.48-7.53-.87-24.9-3.88-43.23-17-43.23-32.59,0-10.13,7.8-19.24,20.15-25.42a83.52,83.52,0,0,1,31.6-8.08c2.25-.15,4.55-.23,6.88-.23a95.24,95.24,0,0,1,10.1.51c12,1.19,22.69,4.48,31,9.19,10.84,6.1,17.57,14.61,17.57,24,0,15.32-17.69,28.23-42,32.39-2.49.43-5.1.75-7.72,1a49.16,49.16,0,0,0,4.4,12.83,50.66,50.66,0,0,0,86.23,7.12l.6-.83a12,12,0,0,1,21.5,7.37A10,10,0,0,1,571.08,673.79Z"/><path class="cls-2" d="M571.2,672.25a10,10,0,0,1-.12,1.54,7.21,7.21,0,0,1-.4,1.9,11.11,11.11,0,0,1-.43,1.23.21.21,0,0,1-.08.16,12.5,12.5,0,0,1-.67,1.31c0,.07,0,.11-.12.19a11.29,11.29,0,0,1-.64.95,0,0,0,0,0,0,0v0a74.69,74.69,0,0,1-119.17,2.5,74.76,74.76,0,0,1-115-.68s-.08,0-.08-.11c-.67-.84-1.34-1.71-2-2.54a3.13,3.13,0,0,1-.28-.43,12.13,12.13,0,0,1,19.24-14.3c.63.83,1.27,1.63,1.94,2.42a50.69,50.69,0,0,0,83.55-8.24,49.59,49.59,0,0,0,4.71-12.39c-2.58-.2-5.07-.48-7.53-.87-24.9-3.88-43.23-17-43.23-32.59,0-10.13,7.8-19.24,20.15-25.42a83.52,83.52,0,0,1,31.6-8.08c2.25-.15,4.55-.23,6.88-.23a95.24,95.24,0,0,1,10.1.51c12,1.19,22.69,4.48,31,9.19,10.84,6.1,17.57,14.61,17.57,24,0,15.32-17.69,28.23-42,32.39-2.49.43-5.1.75-7.72,1a49.16,49.16,0,0,0,4.4,12.83,50.66,50.66,0,0,0,86.23,7.12l.6-.83a12,12,0,0,1,21.5,7.37Z"/><path class="cls-5" d="M601.17,243.7a2.93,2.93,0,0,1,1.9,5.1c-39.45,35.6-82.41,56.95-134.77,52.48-33.59-2.87-70.84-20.89-93.64-46.4S341.05,193.73,359.32,158c0,0,68.06,86.74,168.91,90.25C372.52,195.74,351.59,116.92,349.07,90.55a8.54,8.54,0,0,1,8.08-9.36h.05a8.57,8.57,0,0,1,8.94,8.07c.84,13.83,7.28,31.26,13.55,41.81a115,115,0,0,0,7.53,11.09c25.23-8.89,55.1-6,79,8.07,23.62,13.95,40.17,37,59.42,56.5,17.46,17.73,48.63,36.27,75.54,37"/></svg>