<svg id="Layer_1" data-name="Layer 1" xmlns="http://www.w3.org/2000/svg" viewBox="0 0 595.28 841.89"><defs><style>.cls-1{fill:#572a1a;}.cls-2{fill:#cb7244;}.cls-3{fill:#f9d6c0;}.cls-4,.cls-5,.cls-7{fill:none;stroke-miterlimit:10;}.cls-4{stroke:#cb7244;}.cls-5{stroke:#fcd9c3;stroke-width:5px;}.cls-6{fill:#fcd9c3;}.cls-7{stroke:#603913;stroke-width:0.5px;}.cls-8{fill:#f68b29;}</style></defs><path class="cls-1" d="M205.39,543.13a242.22,242.22,0,0,0,24.73.23c-6.08-25.53-2.47-41.31,2.24-50.48-6.93-1.44-14.22-2.67-21.45-3.47C205.23,497.25,198.66,513.42,205.39,543.13Z"/><path class="cls-2" d="M230.12,543.36c13.64-.51,24.35-1.84,26.75-2.16,12.7-1.67,45.47-6,46.44-16.22,1-10.62-32.86-21.52-43.24-24.86a274.93,274.93,0,0,0-27.71-7.24C227.65,502.05,224,517.83,230.12,543.36Z"/><path class="cls-1" d="M155.88,521.59c3.69,9.85,14.66,15.5,28.1,18.6-6.26-26.65-1.95-42.61,3.08-51.5-13.43,1-24.52,4.86-29.59,13.58A23.43,23.43,0,0,0,155.88,521.59Z"/><path class="cls-2" d="M184,540.19a137.23,137.23,0,0,0,21.41,2.94c-6.73-29.71-.16-45.88,5.52-53.72a132.38,132.38,0,0,0-23.85-.72C182,497.58,177.72,513.54,184,540.19Z"/><path class="cls-2" d="M385.52,288.66c5.32,1.61,10.49,3.46,15.46,5.52,4.37-4.47,22.72-21.44,38.19-8.77,14.45,11.82,4.87,27,.85,32.17a124.93,124.93,0,0,1,9.81,9.21c17.22-10,25.44-29.7,20.44-47-5.22-17.94-23.09-27.53-38.34-28.17C411.55,250.83,391.78,265.88,385.52,288.66Z"/><path class="cls-3" d="M401,294.18a148.4,148.4,0,0,1,39,23.4c4-5.18,13.6-20.35-.85-32.17C423.7,272.74,405.35,289.71,401,294.18Z"/><path class="cls-2" d="M244.1,309.84a130.23,130.23,0,0,1,13-8c-2.88-5.81-11.75-27.33,8.92-37.57,21.5-10.65,38.31,15,41.6,20.47q9.21-1.62,18.87-2.34c-1-27.83-19.73-50.36-43.33-54.77-17.58-3.29-40.53,3-51.21,22.1C221.47,268.54,226.1,293.9,244.1,309.84Z"/><path class="cls-3" d="M257.09,301.86a165.43,165.43,0,0,1,50.52-17.1c-3.29-5.51-20.1-31.12-41.6-20.47C245.34,274.53,254.21,296.05,257.09,301.86Z"/><path class="cls-4" d="M320.27,402.27c9.13,11.87,20,16.69,30.08,18.06,17.29,2.33,32.31-5.52,32.55-5.64l-1.06-2-1-2c-1.43.76-34.54,17.95-57-11.21Zm65.78,67c3.62-.62,7.2-1.37,10.67-2.23C390.83,468.21,386.81,469.12,386.05,469.3Z"/><path class="cls-1" d="M215,358.17c-2.8,20.76,3.88,41.21,17.5,58.9a197.23,197.23,0,0,0,25.75-3.71c51.53-10.82,89.23-39,84.2-63s-50.89-34.59-102.42-23.76c-5.17,1.09-10.2,2.34-15.05,3.75A71.37,71.37,0,0,0,215,358.17Z"/><path class="cls-1" d="M440.42,446.88l.76.42c19.14-13.63,31.93-32.21,34.86-53.88a71.15,71.15,0,0,0-2.11-28.95c-43.08-20.93-84.8-22.35-95.79-2.31C366.36,383.62,394.25,421.55,440.42,446.88Z"/><path class="cls-1" d="M345.93,379.14c-.55,4,3.94,7.95,10,8.77s11.42-1.77,12-5.8-3.93-8-10-8.78S346.47,375.11,345.93,379.14Z"/><path class="cls-1" d="M320.27,402.27c9.13,11.87,20,16.69,30.08,18.06,17.29,2.33,32.31-5.52,32.55-5.64l-1.06-2-1-2c-1.43.76-34.54,17.95-57-11.21Z"/><path class="cls-5" d="M320.37,362.28a13.73,13.73,0,0,0-24.79-4.38"/><path class="cls-5" d="M417.33,380.52A13.72,13.72,0,0,0,393,374.23"/><path class="cls-2" d="M282,486.31c.86.27,1.83.59,2.9.95-16.52,23.66-15,46.27-14.65,55.09S259.36,561,251.58,571.07s22.59,24.52,30.63,28.73,25.92-26.56,25.92-26.56l32,.26c1.53,38.43,5.36,40.72,23.75,41.49s29.87-4,29.87-10.47-6.9-10.21-6.9-10.21l1.45-33c17.39-18.86,5-51.53-1.13-64.67,20.05,11.88,59.37,32.68,66.07,15.22,9.6-27.1-47.46-39.39-66.49-42.71,1.57-.35,5.12-1.13,9.93-2.06a.61.61,0,0,1,.13,0c16.8-4.14,31.9-10.89,44.33-19.75l-.76-.41c-46.17-25.34-74.06-63.26-62.28-84.72,11-20,52.71-18.62,95.79,2.3-3.9-13.85-11.8-27-22.85-38.62a123.14,123.14,0,0,0-9.8-9.22,148.46,148.46,0,0,0-39-23.4c-5-2.05-10.14-3.91-15.46-5.51A181.21,181.21,0,0,0,321,280.33a160.7,160.7,0,0,0-16.09,2A141.49,141.49,0,0,0,261.8,296.9a113,113,0,0,0-11.08,6.81A90.45,90.45,0,0,0,225,330.39q7.29-2.11,15.05-3.75c51.54-10.83,97.4-.19,102.42,23.76s-32.67,52.14-84.2,63a198.55,198.55,0,0,1-25.74,3.71c.8,1,1.62,2.07,2.47,3.09-5.86-.83-10.35.3-12.53,4.36C211,446,252.09,479.93,282,486.31Zm86-104.2c-.55,4-5.91,6.62-12,5.8s-10.56-4.74-10-8.77,5.91-6.63,12-5.81S368.45,378.08,367.91,382.11Zm15,32.57c-.25.13-15.27,8-32.56,5.64-10.08-1.36-21-6.19-30.08-18.05l3.53-2.72c22.45,29.16,55.57,12,57,11.21l1,2Z"/><ellipse class="cls-6" cx="332.36" cy="524.19" rx="35.43" ry="43.69" transform="translate(-220.23 806.82) rotate(-84.71)"/><path class="cls-7" d="M284.86,487.26s10.54,2.79,15.73,3.13"/><path class="cls-7" d="M235,420.16c15.3,3.21,35.72,13.81,74.66,43.43"/><path class="cls-8" d="M184.92,282l-12.14-13.87-38.32,33.51-15.85,13.87L190.69,398a45.45,45.45,0,1,0,15.85-13.87L174,346.85l38.33-33.51L197.16,296l-38.32,33.51-12.24-14Zm63.44,124.22a27.42,27.42,0,1,1-38.68-2.57A27.45,27.45,0,0,1,248.36,406.25Z"/></svg>