<svg width="257" height="369" viewBox="0 0 257 369" fill="none" xmlns="http://www.w3.org/2000/svg">
<path d="M168.595 249.392C165.153 248.46 161.761 247.348 158.432 246.061C164.411 236.287 165.089 229.226 164.411 224.76C167.433 225.124 170.598 225.636 173.668 226.289C174.924 230.344 175.407 237.996 168.595 249.392Z" fill="#572A1A"/>
<path d="M158.445 246.066C152.927 243.962 148.727 241.919 147.785 241.455C142.812 239 129.981 232.658 130.982 228.271C132.019 223.712 147.388 223.888 152.085 223.932C156.21 223.994 160.328 224.272 164.424 224.764C165.089 229.231 164.411 236.292 158.445 246.066Z" fill="#CB7244"/>
<path d="M191.813 247.311C188.955 250.891 183.692 251.72 177.765 251.146C183.969 240.933 184.383 233.701 183.537 229.305C188.903 231.576 192.914 234.727 193.799 239.057C194.068 240.497 194.03 241.979 193.687 243.402C193.344 244.826 192.706 246.159 191.813 247.311Z" fill="#572A1A"/>
<path d="M177.765 251.146C174.667 250.808 171.601 250.222 168.595 249.392C175.407 237.997 174.924 230.339 173.668 226.29C177.039 226.992 180.342 228 183.537 229.301C184.383 233.701 183.969 240.933 177.765 251.146Z" fill="#CB7244"/>
<path d="M117.75 123.53C115.622 123.877 113.541 124.328 111.524 124.867C110.078 122.895 103.909 115.312 97.3076 119.437C91.1468 123.285 94.0394 129.706 95.313 131.937C93.8441 132.88 92.4273 133.904 91.0691 135.005C84.9731 130.184 82.836 122.08 85.6509 115.619C88.5867 108.896 95.9476 106.099 101.841 106.651C109.711 107.405 116.524 114.317 117.75 123.53Z" fill="#CB7244"/>
<path d="M111.524 124.867C105.795 126.36 100.327 128.742 95.313 131.928C94.0178 129.697 91.1468 123.276 97.3076 119.428C103.909 115.312 110.091 122.895 111.524 124.867Z" fill="#F9D6C0"/>
<path d="M170.965 139.239C169.513 137.883 167.985 136.614 166.389 135.439C167.796 133.326 172.321 125.402 164.908 120.322C157.206 115.036 149.422 124.14 147.872 126.112C145.569 125.367 143.193 124.731 140.744 124.205C142.587 113.406 150.933 105.608 160.228 105.131C167.136 104.776 175.641 108.422 178.749 116.443C181.806 124.324 178.736 133.971 170.965 139.239Z" fill="#CB7244"/>
<path d="M166.397 135.434C160.761 131.331 154.508 128.181 147.88 126.107C149.43 124.135 157.214 115.032 164.916 120.317C172.329 125.402 167.805 133.326 166.397 135.434Z" fill="#F9D6C0"/>
<path d="M135.705 170.025C125.568 180.211 113.739 171.779 113.23 171.393L112.725 172.103L112.215 172.813C112.301 172.874 117.663 176.727 124.429 176.727C128.37 176.727 132.796 175.412 136.919 171.27L135.705 170.025ZM104.189 192.515C105.484 193.032 106.814 193.514 108.174 193.943C107.889 193.834 106.395 193.29 104.189 192.515Z" stroke="#CB7244" stroke-miterlimit="10"/>
<path d="M171.656 146.002C173.584 146.698 175.446 147.45 177.242 148.259C175.242 143.785 172.349 139.781 168.746 136.5C167.514 135.345 166.216 134.263 164.86 133.261C160.054 129.76 154.721 127.074 149.068 125.306C147.069 124.661 145.041 124.118 142.989 123.68C134.545 121.891 125.85 121.692 117.335 123.092C115.207 123.439 113.126 123.89 111.11 124.429C105.374 125.921 99.9004 128.302 94.8811 131.49C93.4122 132.433 91.9954 133.457 90.6372 134.558C85.7889 138.503 82.0717 143.219 79.844 148.417C97.4758 142.526 113.575 144.17 116.757 152.564C120.18 161.571 107.501 174.882 88.4527 182.333L88.1375 182.456C92.8061 186.789 98.235 190.194 104.142 192.493H104.189C106.395 193.247 107.889 193.808 108.174 193.921H108.226C114.819 196.002 121.686 197.049 128.591 197.025C141.542 197.025 153.376 193.483 162.378 187.645C165.074 185.913 167.581 183.895 169.855 181.623C166.571 180.919 163.337 179.996 160.172 178.862C140.938 171.928 127.921 158.95 131.095 149.872C134.268 140.795 152.422 139.064 171.656 146.002ZM123.962 158.003C126.337 158.003 128.28 159.318 128.28 160.9C128.28 162.482 126.354 163.793 123.962 163.793C121.571 163.793 119.667 162.5 119.667 160.9C119.667 159.3 121.592 158.003 123.962 158.003ZM135.705 170.025L136.919 171.27C132.796 175.416 128.37 176.727 124.429 176.727C117.664 176.727 112.301 172.874 112.215 172.813L112.725 172.103L113.23 171.393C113.739 171.765 125.568 180.211 135.705 170.025Z" fill="#CB7244"/>
<path d="M179.634 159.616C179.634 167.86 176.008 175.482 169.855 181.662C166.571 180.945 163.336 180.009 160.172 178.861C140.938 171.927 127.921 158.949 131.095 149.872C134.268 140.795 152.435 139.064 171.677 146.002C173.606 146.697 175.468 147.45 177.264 148.259C178.826 151.835 179.634 155.704 179.634 159.616Z" fill="#572A1A"/>
<path d="M88.4528 182.333L88.1376 182.456C81.4933 176.135 77.543 168.215 77.543 159.611C77.5553 155.763 78.3474 151.959 79.87 148.435C97.5018 142.544 113.601 144.188 116.783 152.581C120.181 161.571 107.501 174.882 88.4528 182.333Z" fill="#572A1A"/>
<path d="M128.263 160.9C128.263 162.499 126.337 163.792 123.945 163.792C121.554 163.792 119.65 162.499 119.65 160.9C119.65 159.3 121.575 158.002 123.945 158.002C126.316 158.002 128.263 159.3 128.263 160.9Z" fill="#572A1A"/>
<path d="M135.705 170.025C125.568 180.211 113.739 171.779 113.23 171.393L112.725 172.103L112.215 172.813C112.301 172.874 117.664 176.727 124.429 176.727C128.37 176.727 132.796 175.412 136.919 171.27L135.705 170.025Z" fill="#572A1A"/>
<path d="M150.315 209.227H149.728C152.668 217.116 157.448 232.067 152.962 235.157C142.376 242.656 146.676 256.633 146.676 259.552C143.701 265.596 127.606 263.694 127.365 261.121C127.123 258.549 127.365 243.888 127.365 243.888L124.191 243.664C124.191 243.664 125.18 256.98 124.191 260.784C123.203 264.588 104.332 266.158 105.122 258.097C105.912 250.037 106.996 248.924 99.5094 234.71C94.8079 225.799 98.5596 216.095 102.009 210.099L101.824 210.055C96.0642 224.296 92.9299 226.864 91.1296 226.54C87.1792 225.83 83.8679 210.16 90.469 200.68C93.1803 196.797 99.7037 190.875 104.151 192.493H104.198C105.493 193.01 106.823 193.492 108.183 193.921H108.235C114.828 196.002 121.695 197.049 128.599 197.025C141.551 197.025 153.385 193.483 162.387 187.645C162.387 187.645 176.003 183.227 178.74 191.208C181.478 199.19 166.406 209.003 150.315 209.227Z" fill="#CB7244" stroke="#CB7244" stroke-miterlimit="10"/>
<path d="M102 210.094C102.713 210.23 105.618 210.59 112.794 209.218" stroke="#CB7244" stroke-miterlimit="10"/>
<path d="M144.629 208.802C146.308 209.115 148.013 209.262 149.719 209.24" stroke="#CB7244" stroke-miterlimit="10"/>
<path d="M149.728 209.222C148.627 206.251 147.781 204.27 147.781 204.27" stroke="#CB7244" stroke-miterlimit="10"/>
<path d="M106.003 204.27C104.507 206.091 103.168 208.04 102 210.095" stroke="#CB7244" stroke-miterlimit="10"/>
<path d="M125.322 235.2C134.416 235.2 141.789 229.131 141.789 221.644C141.789 214.156 134.416 208.087 125.322 208.087C116.228 208.087 108.856 214.156 108.856 221.644C108.856 229.131 116.228 235.2 125.322 235.2Z" fill="#FCD9C3"/>
<path d="M138.957 155.671C139.331 154.69 139.979 153.841 140.822 153.228C141.664 152.616 142.665 152.267 143.701 152.224C144.736 152.181 145.761 152.447 146.65 152.987C147.54 153.528 148.254 154.321 148.705 155.268" stroke="#FCD9C3" stroke-width="5" stroke-miterlimit="10"/>
<path d="M100.761 157.678C101.06 156.67 101.641 155.773 102.435 155.096C103.228 154.419 104.199 153.992 105.229 153.867C106.258 153.742 107.3 153.926 108.229 154.394C109.157 154.862 109.93 155.595 110.454 156.504" stroke="#FCD9C3" stroke-width="5" stroke-miterlimit="10"/>
<path d="M202.402 192.101L53.8203 195.024L54.6276 237.325L203.21 234.402L202.402 192.101Z" fill="#FCD9C3"/>
<path d="M86.3308 240.323C90.6886 240.237 94.1863 238.332 94.143 236.066C94.0998 233.801 90.532 232.034 86.1742 232.12C81.8164 232.205 78.3187 234.111 78.362 236.377C78.4052 238.642 81.973 240.409 86.3308 240.323Z" fill="#CB7244" stroke="#CB7244" stroke-miterlimit="10"/>
<path d="M171.332 197.358C175.689 197.273 179.187 195.367 179.144 193.101C179.101 190.836 175.533 189.069 171.175 189.155C166.817 189.241 163.319 191.146 163.363 193.412C163.406 195.677 166.974 197.444 171.332 197.358Z" fill="#CB7244" stroke="#CB7244" stroke-miterlimit="10"/>
<path d="M71.8516 220.834C71.8575 220.786 71.9643 220.724 72.1722 220.645C72.3878 220.567 72.6537 220.475 72.9699 220.369C73.2857 220.255 73.6362 220.128 74.0213 219.989C74.4061 219.841 74.7746 219.679 75.1269 219.501C75.4869 219.323 75.8073 219.131 76.088 218.925C76.3684 218.711 76.5698 218.48 76.6924 218.233C76.6872 218.108 76.5972 218.014 76.4225 217.95C76.2479 217.887 76.019 217.837 75.736 217.801C75.453 217.765 75.1313 217.738 74.7709 217.72C74.4104 217.703 74.0378 217.674 73.653 217.634C73.276 217.593 72.9061 217.537 72.5434 217.465C72.1807 217.393 71.8557 217.288 71.5685 217.15C71.2809 217.005 71.0465 216.822 70.8653 216.602C70.6837 216.375 70.5857 216.089 70.5714 215.746C70.5573 215.41 70.6173 215.068 70.7512 214.719C70.8927 214.362 71.0814 214.014 71.3175 213.677C71.5536 213.34 71.8257 213.02 72.1337 212.719C72.4495 212.418 72.7785 212.151 73.1206 211.919C73.4628 211.688 73.803 211.503 74.1413 211.365C74.4796 211.227 74.797 211.152 75.0937 211.141C75.1717 211.138 75.2537 211.135 75.3396 211.131C75.4251 211.12 75.4995 211.121 75.5626 211.135C75.6335 211.148 75.6896 211.181 75.7309 211.234C75.7797 211.279 75.8063 211.352 75.8105 211.453C75.821 211.703 75.7465 211.886 75.5871 212.001C75.4278 212.117 75.231 212.179 74.9968 212.188L74.4864 212.043C74.2912 212.051 74.0711 212.118 73.8262 212.244C73.5888 212.363 73.3492 212.525 73.1076 212.729C72.8656 212.926 72.6288 213.154 72.3973 213.413C72.1732 213.664 71.973 213.926 71.7968 214.198C71.628 214.463 71.4906 214.73 71.3846 214.999C71.2861 215.261 71.2413 215.498 71.2501 215.708C71.2612 215.974 71.3562 216.189 71.5351 216.354C71.7138 216.511 71.9457 216.636 72.231 216.726C72.5163 216.817 72.8396 216.883 73.201 216.924C73.5699 216.957 73.9425 216.986 74.3189 217.01C74.6953 217.035 75.064 217.064 75.4251 217.097C75.7939 217.13 76.1207 217.184 76.4053 217.259C76.6897 217.327 76.9208 217.431 77.0987 217.573C77.2764 217.707 77.3703 217.895 77.3804 218.137C77.3902 218.371 77.3063 218.609 77.1287 218.85C76.9512 219.091 76.7147 219.327 76.4194 219.557C76.1238 219.78 75.7808 219.992 75.3905 220.195C75.0077 220.389 74.6199 220.56 74.2273 220.708C73.8344 220.848 73.4482 220.96 73.0686 221.045C72.6968 221.13 72.3741 221.173 72.1005 221.176C72.0225 221.179 71.955 221.154 71.898 221.102C71.8411 221.049 71.8256 220.96 71.8516 220.834ZM81.1328 213.913C81.1386 213.866 81.1599 213.814 81.1967 213.758C81.2409 213.694 81.2938 213.649 81.3552 213.623C81.4245 213.597 81.4992 213.606 81.5792 213.65C81.6667 213.685 81.7565 213.776 81.8486 213.921C81.8425 214.523 81.8286 215.125 81.807 215.728C81.7927 216.323 81.7979 216.913 81.8224 217.499C81.8544 218.076 81.9174 218.648 82.0115 219.215C82.1134 219.782 82.2733 220.331 82.491 220.862C82.5011 220.917 82.4835 220.964 82.4383 221.005C82.3934 221.054 82.3323 221.087 82.2549 221.106C82.1778 221.132 82.1 221.143 82.0216 221.138C81.9432 221.133 81.8793 221.101 81.8299 221.04L81.3382 219.1C81.3112 219.203 81.2276 219.355 81.0874 219.555C80.9551 219.756 80.7956 219.961 80.6089 220.172C80.4297 220.374 80.2419 220.557 80.0454 220.721C79.8487 220.877 79.6763 220.962 79.5283 220.975C79.1623 221.012 78.8681 220.895 78.6455 220.622C78.423 220.349 78.2515 219.988 78.1311 219.539C78.0181 219.082 77.9421 218.573 77.9029 218.011C77.8638 217.45 77.8409 216.904 77.8343 216.372C77.8277 215.841 77.8272 215.36 77.8326 214.93C77.8381 214.5 77.8248 214.183 77.7929 213.981C77.8137 213.918 77.8508 213.87 77.9041 213.836C77.9653 213.803 78.031 213.785 78.1013 213.782C78.1715 213.779 78.2385 213.792 78.3023 213.821C78.3739 213.85 78.4266 213.895 78.4604 213.956C78.4871 214.221 78.5049 214.552 78.5138 214.951C78.5226 215.349 78.5326 215.775 78.5438 216.228C78.5546 216.673 78.5734 217.122 78.6001 217.574C78.6347 218.026 78.6832 218.439 78.7457 218.812C78.8079 219.177 78.8911 219.483 78.9952 219.729C79.1068 219.967 79.2531 220.098 79.434 220.123C79.5667 220.118 79.6976 220.07 79.8267 219.979C79.9558 219.888 80.084 219.773 80.2111 219.636C80.338 219.49 80.4565 219.333 80.5668 219.165C80.6767 218.989 80.7713 218.821 80.8506 218.661C80.9297 218.494 80.9937 218.343 81.0428 218.208C81.0919 218.074 81.1189 217.971 81.1237 217.9C81.1276 217.806 81.1331 217.658 81.1403 217.454C81.1471 217.243 81.149 217.008 81.146 216.75C81.1505 216.484 81.1504 216.203 81.1458 215.906C81.149 215.609 81.1492 215.331 81.1462 215.073C81.1507 214.807 81.1487 214.573 81.1402 214.37C81.1392 214.159 81.1367 214.006 81.1328 213.913ZM82.9488 224.234C82.9785 223.263 82.9956 222.457 83 221.816C83.0045 221.175 83.0011 220.628 82.99 220.175C82.9863 219.714 82.9733 219.308 82.9507 218.957C82.9282 218.606 82.901 218.235 82.8691 217.846C82.8368 217.448 82.7983 216.996 82.7537 216.49C82.7165 215.975 82.6738 215.328 82.6255 214.548C82.6375 214.461 82.6656 214.386 82.7099 214.322C82.7538 214.25 82.8025 214.201 82.8562 214.176C82.9174 214.142 82.9837 214.139 83.0553 214.168C83.1269 214.197 83.2001 214.264 83.2749 214.371L83.3035 215.894C83.5545 215.541 83.8381 215.217 84.1542 214.924C84.4782 214.63 84.8042 214.387 85.1324 214.194C85.4681 213.994 85.7945 213.853 86.1116 213.77C86.4284 213.68 86.7052 213.661 86.9421 213.715C87.1867 213.768 87.376 213.902 87.5101 214.116C87.6516 214.321 87.711 214.62 87.6883 215.012C87.6715 215.356 87.5816 215.731 87.4187 216.136C87.2555 216.533 87.0493 216.932 86.8002 217.332C86.5586 217.725 86.2892 218.106 85.9919 218.477C85.6947 218.848 85.4035 219.176 85.1182 219.46C84.833 219.745 84.5652 219.978 84.3147 220.159C84.0718 220.333 83.8761 220.422 83.7278 220.428C83.7246 220.538 83.7192 220.69 83.7118 220.886C83.7047 221.09 83.6985 221.317 83.6934 221.567C83.6885 221.825 83.6801 222.091 83.6681 222.365C83.6639 222.639 83.6593 222.901 83.6541 223.152C83.649 223.402 83.6428 223.629 83.6357 223.832C83.6286 224.036 83.6271 224.189 83.6314 224.29C83.594 224.331 83.5486 224.367 83.4953 224.401C83.4419 224.434 83.3842 224.456 83.3221 224.466C83.2599 224.476 83.1968 224.463 83.1327 224.426C83.069 224.397 83.0077 224.333 82.9488 224.234ZM83.6413 219.763C83.8947 219.652 84.1946 219.437 84.5409 219.119C84.887 218.793 85.2267 218.409 85.56 217.966C85.9008 217.515 86.2049 217.027 86.4722 216.501C86.7395 215.974 86.9211 215.455 87.0169 214.944C86.9596 214.696 86.8474 214.536 86.6802 214.464C86.513 214.392 86.3171 214.384 86.0927 214.439C85.8758 214.487 85.6378 214.593 85.3789 214.76C85.1197 214.918 84.8696 215.107 84.6286 215.328C84.3951 215.54 84.1781 215.775 83.9778 216.033C83.7775 216.29 83.6238 216.543 83.5169 216.789L83.6413 219.763ZM88.476 224.023C88.5058 223.053 88.5229 222.247 88.5273 221.606C88.5317 220.964 88.5284 220.417 88.5172 219.964C88.5136 219.503 88.5005 219.097 88.478 218.746C88.4555 218.395 88.4283 218.025 88.3963 217.635C88.364 217.238 88.3256 216.786 88.2809 216.279C88.2437 215.765 88.201 215.117 88.1527 214.337C88.1648 214.251 88.1929 214.176 88.2371 214.111C88.281 214.039 88.3298 213.991 88.3835 213.965C88.4446 213.931 88.511 213.929 88.5825 213.957C88.6541 213.986 88.7273 214.054 88.8021 214.16L88.8307 215.684C89.0818 215.33 89.3654 215.007 89.6815 214.713C90.0054 214.419 90.3315 214.176 90.6597 213.984C90.9953 213.783 91.3217 213.642 91.6389 213.56C91.9557 213.469 92.2325 213.451 92.4693 213.504C92.7139 213.558 92.9033 213.691 93.0373 213.905C93.1789 214.111 93.2383 214.409 93.2156 214.801C93.1987 215.146 93.1089 215.521 92.946 215.926C92.7827 216.323 92.5766 216.721 92.3275 217.122C92.0859 217.514 91.8164 217.896 91.5192 218.267C91.2219 218.638 90.9307 218.965 90.6455 219.25C90.3602 219.534 90.0924 219.767 89.842 219.949C89.599 220.122 89.4034 220.212 89.255 220.218C89.2518 220.327 89.2465 220.48 89.239 220.676C89.2319 220.879 89.2258 221.106 89.2206 221.356C89.2158 221.615 89.2074 221.881 89.1954 222.155C89.1912 222.429 89.1865 222.691 89.1814 222.941C89.1762 223.191 89.1701 223.418 89.1629 223.622C89.1558 223.826 89.1544 223.978 89.1586 224.079C89.1212 224.12 89.0759 224.157 89.0225 224.19C88.9692 224.224 88.9114 224.245 88.8493 224.255C88.7872 224.266 88.7241 224.252 88.66 224.216C88.5962 224.187 88.5349 224.123 88.476 224.023ZM89.1686 219.552C89.4219 219.441 89.7218 219.226 90.0682 218.908C90.4142 218.582 90.7539 218.198 91.0873 217.755C91.4281 217.305 91.7321 216.816 91.9994 216.29C92.2667 215.764 92.4483 215.245 92.5442 214.733C92.4869 214.485 92.3746 214.325 92.2074 214.253C92.0402 214.181 91.8444 214.173 91.62 214.229C91.403 214.276 91.1651 214.383 90.9062 214.549C90.6469 214.708 90.3968 214.897 90.1558 215.117C89.9223 215.329 89.7054 215.564 89.5051 215.822C89.3047 216.08 89.1511 216.332 89.0441 216.578L89.1686 219.552ZM95.1327 220.252C94.8188 220.225 94.5559 220.109 94.3441 219.906C94.1401 219.703 93.9732 219.451 93.8433 219.152C93.7135 218.852 93.6216 218.523 93.5675 218.165C93.5209 217.8 93.4981 217.441 93.499 217.089C93.4999 216.549 93.5759 216.031 93.7271 215.532C93.886 215.034 94.0868 214.6 94.3294 214.231C94.5795 213.854 94.8566 213.562 95.1607 213.355C95.4723 213.14 95.7813 213.05 96.0877 213.085C96.4098 213.12 96.6738 213.262 96.8797 213.512C97.0935 213.762 97.2628 214.072 97.3878 214.443C97.5128 214.813 97.5963 215.221 97.6383 215.665C97.6801 216.101 97.6938 216.523 97.6796 216.93C97.6598 217.392 97.5763 217.825 97.429 218.229C97.2817 218.634 97.0892 218.985 96.8515 219.283C96.6215 219.581 96.3539 219.818 96.0485 219.994C95.7505 220.162 95.4453 220.248 95.1327 220.252ZM95.9986 213.757C95.7396 213.736 95.501 213.827 95.2828 214.031C95.0721 214.226 94.8836 214.488 94.7174 214.814C94.5588 215.133 94.4294 215.498 94.3292 215.908C94.2288 216.311 94.1672 216.708 94.1445 217.1C94.1251 217.382 94.1254 217.671 94.1457 217.967C94.1659 218.264 94.2123 218.532 94.2849 218.771C94.3652 219.01 94.479 219.206 94.626 219.356C94.7806 219.499 94.9788 219.566 95.2208 219.556C95.4163 219.557 95.6165 219.483 95.8215 219.334C96.0342 219.185 96.2293 218.99 96.4069 218.749C96.5841 218.5 96.7366 218.22 96.8644 217.911C97 217.601 97.0845 217.285 97.118 216.963C97.1586 216.625 97.1559 216.281 97.11 215.931C97.0715 215.573 96.9991 215.243 96.8927 214.943C96.794 214.641 96.666 214.384 96.5085 214.172C96.3585 213.951 96.1885 213.812 95.9986 213.757ZM98.369 219.953C98.3005 218.876 98.2428 217.964 98.1958 217.215C98.1489 216.466 98.1112 215.846 98.0828 215.355C98.0544 214.863 98.0306 214.481 98.0114 214.208C97.9996 213.927 97.987 213.72 97.9737 213.588C97.9681 213.455 97.9649 213.377 97.9639 213.354C97.9626 213.323 97.9617 213.303 97.9614 213.295C97.9663 213.225 97.999 213.165 98.0595 213.116C98.12 213.066 98.1852 213.037 98.2551 213.026C98.3325 213.008 98.407 213.012 98.4786 213.041C98.5502 213.07 98.603 213.118 98.6372 213.187L98.785 215.879C98.8796 215.336 99.0482 214.88 99.2908 214.511C99.5412 214.142 99.8261 213.85 100.145 213.634C100.465 213.411 100.798 213.261 101.147 213.186C101.504 213.11 101.835 213.093 102.142 213.136C102.244 213.156 102.32 213.196 102.37 213.256C102.427 213.317 102.457 213.386 102.461 213.464C102.471 213.534 102.455 213.605 102.411 213.677C102.375 213.741 102.322 213.79 102.253 213.824C101.901 213.814 101.57 213.858 101.261 213.955C100.96 214.045 100.684 214.177 100.433 214.35C100.19 214.516 99.9755 214.712 99.7895 214.938C99.6113 215.164 99.4726 215.399 99.3734 215.646C99.2242 216.003 99.1265 216.378 99.0804 216.771C99.0417 217.155 99.0226 217.539 99.023 217.922C99.0312 218.305 99.0464 218.668 99.0686 219.011C99.0986 219.354 99.115 219.654 99.118 219.912C99.1138 219.998 99.0775 220.066 99.0092 220.116C98.9484 220.157 98.8751 220.18 98.7892 220.183C98.7115 220.194 98.6288 220.181 98.5413 220.145C98.4613 220.101 98.4039 220.037 98.369 219.953ZM103.474 214.41L102.412 214.814C102.325 214.794 102.253 214.754 102.195 214.694C102.13 214.634 102.085 214.569 102.058 214.5C102.032 214.43 102.025 214.364 102.038 214.301C102.043 214.238 102.073 214.19 102.126 214.157L103.44 213.603L103.278 210.29C103.297 210.188 103.345 210.112 103.421 210.062C103.497 210.012 103.574 209.989 103.653 209.994C103.738 209.991 103.818 210.015 103.89 210.067C103.962 210.111 104.012 210.172 104.039 210.249C104.033 210.492 104.032 210.75 104.036 211.023C104.039 211.289 104.043 211.559 104.046 211.832C104.057 212.098 104.072 212.359 104.091 212.616C104.109 212.866 104.134 213.095 104.166 213.305L105.951 212.498C106.059 212.463 106.145 212.471 106.21 212.524C106.274 212.568 106.316 212.633 106.335 212.718C106.362 212.795 106.361 212.874 106.333 212.953C106.305 213.032 106.253 213.089 106.176 213.123L104.2 214.113C104.204 214.191 104.215 214.378 104.235 214.675C104.255 214.963 104.278 215.306 104.302 215.704C104.326 216.102 104.352 216.527 104.379 216.979C104.406 217.432 104.427 217.857 104.444 218.255C104.468 218.653 104.487 219 104.499 219.297C104.519 219.585 104.531 219.769 104.534 219.847C104.529 220.105 104.46 220.236 104.328 220.242C104.195 220.247 104.048 220.19 103.887 220.071L103.474 214.41ZM112.04 219.549C112.018 219.394 111.992 219.144 111.962 218.801C111.939 218.451 111.911 218.053 111.877 217.609C111.85 217.156 111.822 216.676 111.793 216.169C111.764 215.662 111.728 215.175 111.685 214.708C111.649 214.232 111.603 213.792 111.547 213.388C111.499 212.983 111.447 212.66 111.39 212.42C111.381 212.225 111.435 212.114 111.552 212.086C111.675 212.05 111.816 212.044 111.973 212.07C112.068 212.652 112.137 213.181 112.18 213.657C112.231 214.132 112.269 214.556 112.292 214.931C112.323 215.297 112.348 215.617 112.368 215.889C112.394 216.154 112.431 216.368 112.476 216.53C112.54 215.801 112.612 215.18 112.692 214.669C112.772 214.158 112.86 213.74 112.956 213.416C113.059 213.084 113.174 212.841 113.301 212.688C113.427 212.526 113.568 212.431 113.723 212.402C113.863 212.381 114 212.489 114.135 212.726C114.27 212.956 114.396 213.252 114.513 213.615C114.637 213.977 114.748 214.372 114.844 214.798C114.947 215.217 115.03 215.604 115.092 215.962C115.324 215.163 115.517 214.53 115.669 214.063C115.829 213.596 115.971 213.243 116.094 213.003C116.216 212.756 116.331 212.599 116.438 212.533C116.552 212.466 116.68 212.434 116.821 212.436C117.008 212.437 117.16 212.513 117.276 212.665C117.399 212.809 117.498 213.008 117.571 213.264C117.644 213.511 117.699 213.802 117.736 214.137C117.781 214.464 117.819 214.81 117.85 215.176C117.889 215.542 117.932 215.916 117.979 216.297C118.034 216.67 118.104 217.027 118.188 217.368C118.273 217.709 118.384 218.025 118.521 218.317C118.658 218.601 118.836 218.833 119.055 219.012C118.99 219.155 118.913 219.279 118.824 219.384C118.734 219.482 118.637 219.501 118.533 219.442C118.301 219.303 118.107 219.06 117.951 218.714C117.804 218.36 117.677 217.958 117.573 217.509C117.468 217.059 117.386 216.593 117.326 216.111C117.267 215.621 117.213 215.173 117.165 214.769C117.116 214.364 117.067 214.03 117.017 213.766C116.975 213.501 116.922 213.367 116.859 213.361C116.632 213.339 116.412 213.703 116.201 214.453C115.998 215.204 115.736 216.316 115.415 217.79C115.38 217.893 115.336 217.969 115.283 218.018C115.23 218.059 115.176 218.081 115.122 218.083C115.067 218.085 115.012 218.072 114.956 218.042C114.9 218.005 114.851 217.96 114.81 217.907C114.675 217.318 114.558 216.752 114.457 216.209C114.364 215.665 114.277 215.183 114.197 214.764C114.117 214.345 114.036 214.008 113.955 213.753C113.882 213.498 113.806 213.364 113.727 213.351C113.657 213.339 113.59 213.419 113.526 213.594C113.471 213.76 113.418 213.993 113.368 214.292C113.318 214.583 113.266 214.933 113.213 215.341C113.167 215.742 113.118 216.174 113.067 216.637C113.016 217.1 112.962 217.579 112.905 218.074C112.847 218.561 112.781 219.044 112.707 219.524C112.679 219.587 112.634 219.636 112.573 219.669C112.512 219.711 112.446 219.733 112.376 219.736C112.314 219.738 112.25 219.725 112.187 219.696C112.123 219.667 112.074 219.618 112.04 219.549ZM119.291 216.247C119.238 216.296 119.141 216.319 119.001 216.317C118.867 216.306 118.741 216.28 118.622 216.238C118.511 216.195 118.434 216.135 118.392 216.059C118.349 215.974 118.392 215.875 118.52 215.761C118.573 215.712 118.63 215.678 118.692 215.66C118.761 215.634 118.826 215.612 118.888 215.594C118.957 215.568 119.011 215.535 119.048 215.494C119.093 215.453 119.118 215.39 119.122 215.304C119.115 214.952 119.128 214.592 119.159 214.223C119.199 213.855 119.282 213.523 119.411 213.229C119.539 212.935 119.729 212.697 119.979 212.515C120.237 212.333 120.582 212.254 121.013 212.277C121.169 212.271 121.346 212.303 121.545 212.374C121.743 212.436 121.934 212.527 122.119 212.645C122.304 212.755 122.466 212.894 122.606 213.06C122.745 213.219 122.835 213.395 122.874 213.589C122.932 213.665 122.905 213.764 122.793 213.886C122.681 214.007 122.522 214.146 122.318 214.303C122.113 214.451 121.881 214.605 121.621 214.763C121.362 214.921 121.11 215.072 120.866 215.214C120.63 215.356 120.42 215.481 120.237 215.59C120.054 215.698 119.936 215.773 119.883 215.814C119.942 216.117 120.006 216.435 120.075 216.769C120.144 217.102 120.235 217.407 120.348 217.685C120.461 217.962 120.596 218.191 120.752 218.373C120.916 218.546 121.115 218.629 121.349 218.62C121.693 218.63 121.984 218.568 122.221 218.434C122.465 218.3 122.665 218.128 122.821 217.919C122.976 217.71 123.096 217.482 123.179 217.237C123.271 216.991 123.335 216.758 123.373 216.537C123.418 216.317 123.446 216.132 123.455 215.983C123.472 215.826 123.488 215.739 123.503 215.723C123.587 215.673 123.685 215.669 123.796 215.712C123.907 215.747 123.974 215.858 123.997 216.045C124.018 216.349 123.966 216.699 123.842 217.094C123.718 217.49 123.538 217.856 123.302 218.194C123.073 218.531 122.792 218.807 122.457 219.023C122.129 219.231 121.773 219.311 121.388 219.263C120.989 219.271 120.668 219.17 120.425 218.96C120.181 218.742 119.982 218.48 119.829 218.173C119.683 217.858 119.571 217.527 119.494 217.178C119.417 216.829 119.349 216.519 119.291 216.247ZM122.254 213.613C121.989 213.279 121.727 213.07 121.465 212.986C121.203 212.903 120.937 212.885 120.665 212.935C120.502 212.964 120.361 213.048 120.242 213.185C120.122 213.315 120.027 213.483 119.958 213.689C119.888 213.887 119.843 214.111 119.822 214.362C119.801 214.606 119.807 214.855 119.842 215.112L122.254 213.613ZM131.938 218.85C131.624 218.823 131.361 218.708 131.149 218.505C130.945 218.301 130.779 218.05 130.649 217.75C130.519 217.45 130.427 217.121 130.373 216.763C130.326 216.398 130.303 216.039 130.304 215.687C130.305 215.148 130.381 214.629 130.532 214.13C130.691 213.632 130.892 213.198 131.135 212.829C131.385 212.452 131.662 212.16 131.966 211.953C132.278 211.738 132.587 211.648 132.893 211.683C133.215 211.718 133.479 211.86 133.685 212.11C133.899 212.36 134.068 212.67 134.193 213.041C134.318 213.412 134.402 213.819 134.444 214.263C134.485 214.699 134.499 215.121 134.485 215.528C134.465 215.99 134.382 216.423 134.234 216.827C134.087 217.232 133.895 217.583 133.657 217.881C133.427 218.179 133.159 218.416 132.854 218.592C132.556 218.76 132.251 218.846 131.938 218.85ZM132.804 212.355C132.545 212.334 132.306 212.425 132.088 212.629C131.877 212.824 131.689 213.086 131.523 213.412C131.364 213.731 131.235 214.096 131.135 214.506C131.034 214.909 130.973 215.306 130.95 215.698C130.93 215.98 130.931 216.269 130.951 216.565C130.971 216.862 131.018 217.13 131.09 217.369C131.171 217.609 131.284 217.804 131.431 217.954C131.586 218.097 131.784 218.164 132.026 218.154C132.222 218.155 132.422 218.081 132.627 217.932C132.84 217.783 133.035 217.588 133.212 217.347C133.389 217.098 133.542 216.819 133.67 216.509C133.805 216.199 133.89 215.883 133.923 215.561C133.964 215.223 133.961 214.879 133.915 214.529C133.877 214.171 133.804 213.842 133.698 213.541C133.599 213.24 133.471 212.982 133.314 212.77C133.164 212.549 132.994 212.41 132.804 212.355ZM134.763 211.8C134.767 211.721 134.796 211.658 134.849 211.609C134.901 211.56 134.963 211.53 135.033 211.52C135.102 211.501 135.173 211.507 135.244 211.535C135.316 211.556 135.376 211.593 135.425 211.645L135.586 216.33C135.711 215.763 135.82 215.203 135.914 214.652C136.016 214.093 136.147 213.588 136.308 213.136C136.469 212.677 136.68 212.297 136.941 211.998C137.202 211.691 137.558 211.509 138.009 211.453C138.25 211.421 138.464 211.487 138.651 211.652C138.837 211.809 138.999 212.029 139.136 212.313C139.281 212.597 139.404 212.932 139.506 213.319C139.608 213.699 139.691 214.098 139.756 214.518C139.828 214.929 139.884 215.346 139.925 215.766C139.966 216.187 139.998 216.576 140.021 216.935C140.044 217.294 140.057 217.61 140.061 217.884C140.072 218.157 140.077 218.356 140.074 218.481C140.025 218.616 139.931 218.706 139.792 218.75C139.661 218.802 139.538 218.752 139.422 218.6C139.408 218.452 139.394 218.198 139.379 217.839C139.363 217.472 139.338 217.055 139.303 216.587C139.276 216.119 139.232 215.632 139.171 215.126C139.119 214.612 139.04 214.142 138.936 213.716C138.84 213.282 138.712 212.924 138.551 212.64C138.398 212.349 138.208 212.188 137.98 212.158C137.783 212.134 137.596 212.247 137.419 212.496C137.25 212.745 137.088 213.071 136.932 213.476C136.785 213.88 136.648 214.335 136.52 214.84C136.401 215.345 136.293 215.842 136.196 216.33C136.107 216.819 136.032 217.267 135.971 217.676C135.909 218.085 135.872 218.399 135.858 218.618C135.837 218.682 135.792 218.734 135.723 218.776C135.655 218.818 135.577 218.84 135.492 218.843C135.414 218.854 135.331 218.846 135.244 218.818C135.165 218.789 135.104 218.733 135.061 218.649L134.763 211.8ZM149.68 214.269L145.862 209.653C145.858 209.552 145.91 209.471 146.017 209.413C146.123 209.346 146.22 209.311 146.305 209.308L149.912 213.369C149.941 213.305 149.989 213.162 150.058 212.941C150.135 212.719 150.222 212.454 150.318 212.145C150.415 211.837 150.518 211.501 150.628 211.137C150.737 210.765 150.839 210.398 150.934 210.034C151.036 209.671 151.123 209.331 151.196 209.016C151.268 208.693 151.32 208.421 151.349 208.201C151.402 208.144 151.46 208.122 151.523 208.136C151.594 208.149 151.657 208.177 151.714 208.222C151.778 208.267 151.832 208.323 151.873 208.392C151.915 208.453 151.937 208.507 151.939 208.554C151.7 209.384 151.499 210.087 151.335 210.664C151.172 211.241 151.036 211.731 150.928 212.134C150.819 212.529 150.731 212.849 150.663 213.094C150.603 213.338 150.553 213.544 150.513 213.709C150.48 213.875 150.451 214.017 150.425 214.135C150.398 214.245 150.368 214.364 150.334 214.49C150.308 214.616 150.271 214.766 150.224 214.94C150.184 215.114 150.124 215.343 150.042 215.627C149.96 215.912 149.854 216.271 149.723 216.706C149.592 217.134 149.431 217.667 149.239 218.308C149.122 218.312 149.001 218.317 148.876 218.322C148.759 218.326 148.698 218.27 148.693 218.153L149.68 214.269ZM153.005 218.047C152.691 218.02 152.428 217.905 152.216 217.702C152.012 217.499 151.845 217.247 151.715 216.947C151.586 216.647 151.494 216.318 151.44 215.961C151.393 215.595 151.37 215.236 151.371 214.885C151.372 214.345 151.448 213.826 151.599 213.328C151.758 212.829 151.959 212.396 152.202 212.027C152.452 211.65 152.729 211.358 153.033 211.151C153.344 210.936 153.653 210.846 153.96 210.881C154.282 210.915 154.546 211.058 154.752 211.308C154.966 211.558 155.135 211.868 155.26 212.239C155.385 212.609 155.468 213.016 155.51 213.46C155.552 213.897 155.566 214.318 155.552 214.725C155.532 215.187 155.448 215.621 155.301 216.025C155.154 216.429 154.961 216.781 154.724 217.079C154.494 217.377 154.226 217.614 153.921 217.79C153.623 217.957 153.317 218.043 153.005 218.047ZM153.871 211.553C153.612 211.531 153.373 211.622 153.155 211.826C152.944 212.022 152.756 212.283 152.59 212.61C152.431 212.929 152.301 213.293 152.201 213.704C152.101 214.106 152.039 214.503 152.017 214.895C151.997 215.177 151.998 215.467 152.018 215.763C152.038 216.059 152.084 216.327 152.157 216.567C152.237 216.806 152.351 217.001 152.498 217.152C152.653 217.295 152.851 217.361 153.093 217.352C153.288 217.352 153.489 217.278 153.694 217.13C153.906 216.981 154.101 216.786 154.279 216.545C154.456 216.296 154.609 216.016 154.736 215.706C154.872 215.396 154.957 215.08 154.99 214.758C155.031 214.421 155.028 214.077 154.982 213.727C154.944 213.369 154.871 213.039 154.765 212.738C154.666 212.437 154.538 212.18 154.381 211.967C154.231 211.746 154.061 211.608 153.871 211.553ZM156.305 217.863C156.282 217.707 156.256 217.458 156.226 217.115C156.204 216.764 156.176 216.367 156.141 215.923C156.115 215.47 156.087 214.99 156.058 214.483C156.029 213.976 155.993 213.489 155.95 213.021C155.914 212.546 155.868 212.106 155.812 211.702C155.764 211.297 155.711 210.974 155.654 210.734C155.646 210.539 155.7 210.428 155.816 210.4C155.94 210.364 156.08 210.358 156.238 210.384C156.333 210.966 156.402 211.495 156.445 211.971C156.496 212.446 156.534 212.87 156.557 213.245C156.588 213.611 156.613 213.93 156.632 214.203C156.659 214.468 156.695 214.682 156.741 214.844C156.805 214.115 156.876 213.494 156.957 212.983C157.037 212.472 157.125 212.054 157.221 211.73C157.324 211.398 157.439 211.155 157.566 211.001C157.692 210.84 157.833 210.745 157.988 210.716C158.128 210.695 158.265 210.803 158.4 211.04C158.535 211.269 158.661 211.566 158.777 211.929C158.902 212.291 159.012 212.686 159.108 213.112C159.212 213.53 159.295 213.918 159.356 214.276C159.589 213.477 159.781 212.844 159.934 212.377C160.094 211.91 160.236 211.556 160.359 211.317C160.481 211.07 160.596 210.913 160.703 210.847C160.817 210.78 160.945 210.748 161.086 210.75C161.273 210.751 161.425 210.827 161.541 210.979C161.664 211.123 161.762 211.322 161.836 211.578C161.909 211.825 161.964 212.116 162.001 212.451C162.046 212.778 162.084 213.124 162.115 213.49C162.154 213.856 162.197 214.23 162.244 214.611C162.299 214.984 162.368 215.341 162.453 215.682C162.538 216.023 162.649 216.339 162.786 216.631C162.923 216.915 163.101 217.147 163.319 217.326C163.255 217.469 163.178 217.593 163.089 217.698C162.999 217.796 162.902 217.815 162.798 217.756C162.565 217.617 162.371 217.374 162.216 217.028C162.068 216.674 161.942 216.272 161.837 215.823C161.733 215.373 161.65 214.907 161.591 214.425C161.532 213.935 161.478 213.487 161.429 213.082C161.381 212.678 161.332 212.343 161.282 212.08C161.24 211.815 161.187 211.681 161.124 211.675C160.897 211.653 160.677 212.017 160.466 212.767C160.263 213.518 160.001 214.63 159.679 216.104C159.645 216.207 159.601 216.283 159.548 216.332C159.495 216.373 159.441 216.395 159.387 216.397C159.332 216.399 159.277 216.386 159.221 216.356C159.164 216.319 159.116 216.274 159.074 216.221C158.94 215.632 158.823 215.066 158.722 214.522C158.629 213.979 158.542 213.497 158.462 213.078C158.382 212.659 158.301 212.322 158.22 212.067C158.147 211.812 158.071 211.678 157.992 211.665C157.921 211.652 157.854 211.733 157.791 211.908C157.736 212.074 157.683 212.307 157.633 212.606C157.582 212.897 157.531 213.247 157.477 213.655C157.432 214.056 157.383 214.487 157.332 214.951C157.281 215.414 157.227 215.893 157.169 216.388C157.112 216.875 157.046 217.358 156.972 217.838C156.943 217.901 156.899 217.95 156.837 217.983C156.777 218.025 156.711 218.047 156.641 218.05C156.578 218.052 156.515 218.039 156.451 218.01C156.388 217.981 156.339 217.932 156.305 217.863ZM163.456 210.496C163.502 210.47 163.556 210.449 163.617 210.431C163.679 210.413 163.737 210.403 163.792 210.401C163.854 210.398 163.914 210.408 163.969 210.429C164.025 210.451 164.07 210.492 164.103 210.553C164.125 211.06 164.152 211.611 164.184 212.204C164.224 212.788 164.265 213.385 164.306 213.993C164.355 214.593 164.399 215.186 164.439 215.771C164.479 216.355 164.517 216.897 164.554 217.396C164.567 217.513 164.539 217.604 164.472 217.669C164.404 217.734 164.327 217.768 164.241 217.772C164.163 217.775 164.088 217.746 164.015 217.687C163.942 217.635 163.903 217.546 163.898 217.421L163.456 210.496ZM163.215 208.112C163.211 208.011 163.243 207.943 163.312 207.909C163.381 207.868 163.458 207.845 163.544 207.842C163.716 207.835 163.824 207.89 163.868 208.006C163.919 208.113 163.948 208.241 163.954 208.389C163.911 208.485 163.852 208.553 163.775 208.595C163.699 208.637 163.617 208.648 163.53 208.628C163.451 208.608 163.379 208.556 163.313 208.472C163.254 208.389 163.222 208.269 163.215 208.112ZM164.719 207.879C164.891 207.693 165.028 207.613 165.131 207.641C165.242 207.668 165.328 207.77 165.39 207.948L165.686 214.468L168.548 210.255C168.681 210.25 168.791 210.269 168.879 210.313C168.974 210.348 169.025 210.444 169.031 210.6L166.118 214.98L169.633 216.558C169.657 216.588 169.687 216.642 169.722 216.719C169.763 216.787 169.786 216.861 169.789 216.939C169.792 217.009 169.768 217.08 169.716 217.153C169.664 217.217 169.564 217.256 169.416 217.27L165.802 215.555L165.882 217.463C165.833 217.598 165.778 217.686 165.717 217.727C165.656 217.769 165.594 217.783 165.531 217.77C165.469 217.764 165.405 217.739 165.341 217.695C165.284 217.65 165.231 217.609 165.183 217.572L164.719 207.879ZM174.151 217.172C174.034 217.012 173.955 216.8 173.913 216.536C173.878 216.271 173.851 215.995 173.831 215.706C173.819 215.409 173.807 215.121 173.795 214.84C173.791 214.551 173.761 214.305 173.705 214.104C173.372 214.922 173.051 215.564 172.742 216.029C172.441 216.486 172.157 216.817 171.892 217.023C171.635 217.22 171.396 217.316 171.177 217.308C170.958 217.293 170.767 217.222 170.605 217.095C170.451 216.961 170.327 216.797 170.233 216.605C170.138 216.406 170.084 216.216 170.068 216.037C170.001 215.742 169.982 215.387 170.012 214.972C170.049 214.548 170.121 214.112 170.227 213.662C170.341 213.212 170.487 212.773 170.664 212.344C170.849 211.907 171.06 211.527 171.297 211.206C171.542 210.883 171.805 210.643 172.088 210.484C172.37 210.316 172.67 210.278 172.986 210.367C173.142 210.346 173.271 210.349 173.374 210.376C173.484 210.395 173.576 210.446 173.65 210.53C173.724 210.613 173.779 210.732 173.817 210.887C173.855 211.034 173.886 211.224 173.911 211.458C173.927 212.216 173.974 212.859 174.051 213.387C174.135 213.916 174.225 214.382 174.32 214.784C174.415 215.187 174.505 215.551 174.589 215.877C174.681 216.201 174.742 216.539 174.772 216.89C174.777 217.015 174.75 217.113 174.691 217.186C174.631 217.251 174.562 217.293 174.485 217.311C174.408 217.338 174.333 217.337 174.262 217.308C174.198 217.279 174.161 217.234 174.151 217.172ZM173.224 211.285C173.026 211.042 172.819 210.944 172.602 210.992C172.385 211.039 172.172 211.184 171.963 211.426C171.762 211.661 171.571 211.969 171.392 212.351C171.212 212.725 171.061 213.126 170.938 213.553C170.815 213.98 170.727 214.405 170.675 214.829C170.629 215.246 170.633 215.613 170.686 215.931C170.81 216.279 170.951 216.484 171.11 216.549C171.269 216.613 171.436 216.583 171.611 216.459C171.785 216.327 171.96 216.125 172.137 215.853C172.313 215.58 172.481 215.288 172.64 214.977C172.798 214.659 172.938 214.345 173.058 214.035C173.185 213.717 173.287 213.452 173.364 213.238L173.224 211.285ZM175.284 217.07C175.265 217 175.295 216.874 175.374 216.691C175.46 216.508 175.576 216.285 175.721 216.021C175.874 215.757 176.05 215.465 176.247 215.145C176.453 214.824 176.666 214.496 176.886 214.159C177.106 213.814 177.323 213.474 177.536 213.137C177.756 212.801 177.958 212.484 178.141 212.188C178.324 211.892 178.481 211.628 178.612 211.396C178.743 211.156 178.829 210.969 178.87 210.835L175.52 210.939C175.489 210.956 175.43 210.946 175.343 210.911C175.263 210.867 175.19 210.811 175.125 210.743C175.059 210.667 175.017 210.587 174.997 210.502C174.978 210.416 175.018 210.341 175.117 210.274C175.406 210.271 175.742 210.266 176.125 210.259C176.516 210.252 176.914 210.237 177.319 210.214C177.733 210.19 178.138 210.159 178.535 210.121C178.932 210.074 179.282 210.018 179.584 209.952C179.725 209.954 179.824 209.989 179.881 210.058C179.947 210.118 179.967 210.226 179.942 210.384L176.333 216.35L180.019 216.139C180.112 216.135 180.18 216.156 180.221 216.201C180.261 216.239 180.279 216.297 180.275 216.375C180.27 216.446 180.242 216.529 180.192 216.625C180.141 216.721 180.078 216.817 180.004 216.913L175.284 217.07ZM180.489 213.916C180.436 213.965 180.339 213.988 180.198 213.986C180.065 213.975 179.939 213.949 179.82 213.907C179.708 213.864 179.632 213.804 179.589 213.728C179.547 213.643 179.59 213.544 179.718 213.43C179.77 213.381 179.828 213.347 179.889 213.329C179.959 213.303 180.024 213.281 180.086 213.263C180.155 213.237 180.209 213.204 180.246 213.163C180.291 213.122 180.316 213.059 180.32 212.973C180.313 212.621 180.326 212.261 180.357 211.892C180.396 211.523 180.48 211.192 180.609 210.898C180.737 210.604 180.927 210.366 181.177 210.184C181.435 210.002 181.78 209.923 182.211 209.945C182.367 209.94 182.544 209.972 182.743 210.042C182.941 210.105 183.132 210.196 183.317 210.314C183.502 210.424 183.664 210.562 183.804 210.729C183.943 210.888 184.033 211.064 184.072 211.258C184.13 211.334 184.103 211.433 183.991 211.555C183.878 211.676 183.72 211.815 183.515 211.971C183.311 212.12 183.078 212.273 182.819 212.432C182.56 212.59 182.308 212.741 182.064 212.883C181.828 213.025 181.618 213.15 181.435 213.259C181.252 213.367 181.133 213.442 181.08 213.483C181.14 213.786 181.204 214.104 181.273 214.438C181.342 214.771 181.433 215.076 181.546 215.354C181.659 215.631 181.794 215.86 181.95 216.042C182.114 216.215 182.312 216.298 182.547 216.289C182.891 216.299 183.182 216.237 183.419 216.103C183.663 215.969 183.863 215.797 184.019 215.588C184.174 215.379 184.294 215.151 184.377 214.906C184.469 214.66 184.533 214.427 184.571 214.206C184.616 213.986 184.644 213.801 184.653 213.652C184.67 213.495 184.686 213.408 184.701 213.392C184.785 213.342 184.882 213.338 184.994 213.381C185.105 213.416 185.172 213.527 185.195 213.713C185.216 214.018 185.164 214.367 185.04 214.763C184.916 215.159 184.735 215.525 184.499 215.863C184.271 216.2 183.989 216.476 183.654 216.692C183.327 216.9 182.971 216.98 182.585 216.932C182.187 216.94 181.866 216.839 181.623 216.629C181.379 216.411 181.18 216.149 181.027 215.842C180.881 215.527 180.769 215.196 180.692 214.847C180.615 214.498 180.547 214.188 180.489 213.916ZM183.451 211.282C183.187 210.948 182.924 210.739 182.663 210.655C182.401 210.571 182.135 210.554 181.863 210.604C181.7 210.633 181.559 210.717 181.44 210.854C181.32 210.984 181.225 211.152 181.156 211.358C181.086 211.556 181.04 211.78 181.02 212.031C180.999 212.275 181.005 212.524 181.039 212.781L183.451 211.282Z" fill="black"/>
</svg>
